<svg width="59" height="57" viewBox="0 0 59 57" fill="none" xmlns="http://www.w3.org/2000/svg">
<path fill-rule="evenodd" clip-rule="evenodd" d="M18.0161 12.6405C18.0161 12.6405 8.30088 16.7407 13.842 27.3055C13.842 27.3055 16.8341 34.2627 21.5992 35.5064C21.5992 35.5064 23.5201 37.8705 26.3645 37.8705C29.2089 37.8705 31.1298 35.5064 31.1298 35.5064C35.8949 34.2627 38.8874 27.3055 38.8874 27.3055C44.4281 16.7407 34.7129 12.6405 34.7129 12.6405C33.7896 16.7409 29.8001 15.7804 29.8001 15.7804C28.8397 17.4056 26.3645 17.6272 26.3645 17.6272C26.3645 17.6272 23.8898 17.4056 22.9291 15.7804C22.9291 15.7804 18.9398 16.7409 18.0161 12.6405Z" fill="white"/>
<path fill-rule="evenodd" clip-rule="evenodd" d="M6.74941 18.2924C6.74941 18.2924 0.986884 23.6115 4.31141 29.9653C4.31141 29.9653 5.29339 32.8195 11.404 32.8467C11.404 32.8467 9.55685 34.4351 7.96841 34.4721C7.96841 34.4721 5.16097 45.6649 19.2723 42.1927C19.2723 42.1927 18.4593 44.1506 17.6839 44.7046C17.6839 44.7046 20.9342 48.4725 26.3645 48.2507C31.7948 48.4725 35.0452 44.7046 35.0452 44.7046C34.2697 44.1506 33.4569 42.1927 33.4569 42.1927C47.5681 45.6649 44.7606 34.4721 44.7606 34.4721C43.1722 34.4351 41.325 32.8467 41.325 32.8467C47.4356 32.8195 48.4176 29.9653 48.4176 29.9653C51.7421 23.6115 45.9796 18.2924 45.9796 18.2924C39.4782 22.5258 43.2872 34.6378 32.3119 37.5011C32.3119 37.5011 30.6867 40.013 26.3645 40.013C22.0423 40.013 20.4172 37.5011 20.4172 37.5011C9.44182 34.6378 13.2508 22.5258 6.74941 18.2924Z" fill="white"/>
<path fill-rule="evenodd" clip-rule="evenodd" d="M5.67827 9.38972C9.54271 9.57151 10.1179 10.0714 12.7707 12.3818C12.7707 12.3818 14.9871 10.8305 16.0585 10.3871C16.0585 10.3871 11.9581 5.06777 5.67827 9.38972Z" fill="white"/>
<path fill-rule="evenodd" clip-rule="evenodd" d="M47.0508 9.38972C40.7709 5.06777 36.6706 10.3871 36.6706 10.3871C37.7419 10.8305 39.9583 12.3818 39.9583 12.3818C42.6114 10.0714 43.1863 9.57151 47.0508 9.38972Z" fill="white"/>
<path fill-rule="evenodd" clip-rule="evenodd" d="M17.1163 25.0058C18.2271 26.1165 20.0282 26.1165 21.1389 25.0058C22.2498 23.8949 22.2498 22.0942 21.1389 20.9831C20.4989 20.3435 19.6307 20.0722 18.7965 20.1694C19.1914 20.7247 19.1401 21.5001 18.6419 21.9979C18.0868 22.5534 17.1864 22.5534 16.6308 21.9979C16.589 21.9563 16.5508 21.9126 16.5153 21.8676C16.0674 22.9061 16.2681 24.1573 17.1163 25.0058Z" fill="#100F0D"/>
<path fill-rule="evenodd" clip-rule="evenodd" d="M26.3645 27.2688C26.3645 27.2688 22.3383 27.0842 24.2222 29.3373C24.2222 29.3373 26.1801 30.6672 25.7739 32.2187C24.8078 33.1644 23.4568 33.0543 22.5644 32.0824C22.2572 31.7481 22.013 31.4752 21.6085 31.756C21.076 32.1256 21.5831 32.8256 22.2417 33.3553C23.618 34.4627 24.905 34.2453 26.3645 33.29C27.824 34.2453 29.1111 34.4627 30.4875 33.3553C31.1459 32.8256 31.653 32.1256 31.1207 31.756C30.7163 31.4752 30.4718 31.7481 30.1648 32.0824C29.2724 33.0543 27.9212 33.1644 26.9553 32.2187C26.5489 30.6672 28.5068 29.3373 28.5068 29.3373C30.3907 27.0842 26.3645 27.2688 26.3645 27.2688Z" fill="#100F0D"/>
<path fill-rule="evenodd" clip-rule="evenodd" d="M21.5624 10.7566C21.5624 10.7566 22.8184 14.9676 26.3645 15.0416C29.9108 14.9676 31.1666 10.7566 31.1666 10.7566C31.8317 12.7512 30.7604 14.155 30.7604 14.155C33.0505 13.4531 33.7896 10.6457 33.7896 10.6457C35.2669 6.43463 38.7024 6.21284 38.7024 6.21284C37.5943 1.37359 32.0903 4.88294 32.0903 4.88294C32.0903 6.47138 31.2405 7.43184 31.2405 7.43184C30.9291 0.44488 21.8001 0.44488 21.4885 7.43184C21.4885 7.43184 20.639 6.47138 20.639 4.88294C20.639 4.88294 15.1348 1.37359 14.0266 6.21284C14.0266 6.21284 17.4621 6.43463 18.9398 10.6457C18.9398 10.6457 19.6785 13.4531 21.9688 14.155C21.9688 14.155 20.8977 12.7512 21.5624 10.7566Z" fill="white"/>
<path fill-rule="evenodd" clip-rule="evenodd" d="M26.3645 17.6272C26.3645 17.6272 23.8898 17.4056 22.9291 15.7805C22.9291 15.7805 18.9398 16.7409 18.0161 12.6405C18.0161 12.6405 8.30088 16.7407 13.842 27.3055C13.842 27.3055 16.8341 34.2627 21.5992 35.5065C21.5992 35.5065 23.5201 37.8705 26.3645 37.8705C29.2089 37.8705 31.1298 35.5065 31.1298 35.5065C35.8949 34.2627 38.8874 27.3055 38.8874 27.3055C44.4281 16.7407 34.7129 12.6405 34.7129 12.6405C33.7896 16.7409 29.8002 15.7805 29.8002 15.7805C28.8397 17.4056 26.3645 17.6272 26.3645 17.6272ZM26.3645 40.013C22.0423 40.013 20.4172 37.5011 20.4172 37.5011C9.44182 34.6378 13.2508 22.5258 6.74941 18.2924C6.74941 18.2924 0.986882 23.6115 4.31141 29.9653C4.31141 29.9653 5.29339 32.8195 11.404 32.8467C11.404 32.8467 9.55685 34.4351 7.96841 34.4721C7.96841 34.4721 5.16097 45.6649 19.2723 42.1927C19.2723 42.1927 18.4593 44.1506 17.6839 44.7046C17.6839 44.7046 20.9342 48.4725 26.3645 48.2507C31.7948 48.4725 35.0452 44.7046 35.0452 44.7046C34.2697 44.1506 33.4569 42.1927 33.4569 42.1927C47.5681 45.6649 44.7606 34.4721 44.7606 34.4721C43.1722 34.4351 41.325 32.8467 41.325 32.8467C47.4356 32.8195 48.4176 29.9653 48.4176 29.9653C51.7421 23.6115 45.9796 18.2924 45.9796 18.2924C39.4782 22.5258 43.2872 34.6378 32.3119 37.5011C32.3119 37.5011 30.6867 40.013 26.3645 40.013ZM26.3645 52.462C18.533 52.6096 14.9132 46.1822 14.9132 46.1822C3.46207 46.9208 4.34837 35.0261 4.34837 35.0261C-5.62542 26.4562 4.6802 15.4726 4.6802 15.4726C2.94411 13.5514 2.79668 9.46345 2.79668 9.46345C6.56458 5.17825 11.9948 5.62184 11.9948 5.62184C13.9895 -1.13833 20.4541 2.44496 20.4541 2.44496C22.0006 -0.814986 30.7284 -0.814986 32.2749 2.44496C32.2749 2.44496 38.7396 -1.13833 40.7342 5.62184C40.7342 5.62184 46.1644 5.17825 49.9323 9.46345C49.9323 9.46345 49.7851 13.5514 48.0488 15.4726C48.0488 15.4726 58.3544 26.4562 48.3807 35.0261C48.3807 35.0261 49.2674 46.9208 37.8158 46.1822C37.8158 46.1822 34.196 52.6096 26.3645 52.462ZM21.4885 7.43185C21.4885 7.43185 20.639 6.4714 20.639 4.88296C20.639 4.88296 15.1348 1.3736 14.0267 6.21285C14.0267 6.21285 17.4621 6.43465 18.9398 10.6457C18.9398 10.6457 19.6785 13.4531 21.9689 14.1551C21.9689 14.1551 20.8977 12.7512 21.5624 10.7566C21.5624 10.7566 22.524 13.9807 25.1401 14.8363C25.5139 14.9585 25.9211 15.0324 26.3645 15.0416C29.9108 14.9676 31.1666 10.7566 31.1666 10.7566C31.8317 12.7512 30.7604 14.1551 30.7604 14.1551C33.0505 13.4531 33.7896 10.6457 33.7896 10.6457C35.267 6.43465 38.7024 6.21285 38.7024 6.21285C37.5943 1.3736 32.0903 4.88296 32.0903 4.88296C32.0903 6.4714 31.2405 7.43185 31.2405 7.43185C30.9291 0.444895 21.8001 0.444895 21.4885 7.43185ZM39.9583 12.3818C42.6114 10.0714 43.1863 9.57152 47.0508 9.38973C40.7709 5.06779 36.6706 10.3872 36.6706 10.3872C37.7419 10.8305 39.9583 12.3818 39.9583 12.3818ZM12.7707 12.3818C10.1179 10.0714 9.54271 9.57152 5.67827 9.38973C11.9581 5.06779 16.0585 10.3872 16.0585 10.3872C14.9871 10.8305 12.7707 12.3818 12.7707 12.3818Z" fill="#100F0D"/>
<path fill-rule="evenodd" clip-rule="evenodd" d="M35.5418 24.9762C34.4311 26.0874 32.6302 26.0874 31.5195 24.9762C30.4088 23.8655 30.4088 22.0646 31.5195 20.9539C32.1592 20.314 33.0279 20.0428 33.8618 20.14C33.4669 20.6952 33.5183 21.4708 34.0162 21.9685C34.5718 22.5241 35.472 22.5241 36.0276 21.9685C36.0693 21.9272 36.1078 21.8833 36.1433 21.8381C36.5908 22.877 36.3905 24.128 35.5418 24.9762Z" fill="#100F0D"/>
<g clip-path="url(#clip0_90_12167)">
<path d="M47.8744 35.7057C48.8383 35.7057 49.768 35.8288 50.6635 36.0749C51.559 36.321 52.393 36.6764 53.1654 37.1413C53.9379 37.6061 54.6454 38.153 55.288 38.7819C55.9306 39.4108 56.4809 40.1183 56.9389 40.9044C57.3969 41.6906 57.7489 42.528 57.995 43.4167C58.2411 44.3053 58.3676 45.235 58.3744 46.2057C58.3744 47.1696 58.2514 48.0993 58.0053 48.9948C57.7592 49.8903 57.4037 50.7243 56.9389 51.4967C56.474 52.2692 55.9271 52.9767 55.2982 53.6193C54.6693 54.2619 53.9618 54.8122 53.1757 55.2702C52.3895 55.7282 51.5521 56.0802 50.6635 56.3263C49.7748 56.5724 48.8451 56.6989 47.8744 56.7057C46.9105 56.7057 45.9809 56.5827 45.0853 56.3366C44.1898 56.0905 43.3559 55.735 42.5834 55.2702C41.8109 54.8053 41.1034 54.2585 40.4608 53.6295C39.8183 53.0006 39.268 52.2931 38.81 51.507C38.3519 50.7209 37.9999 49.8835 37.7538 48.9948C37.5077 48.1061 37.3812 47.1764 37.3744 46.2057C37.3744 45.2419 37.4975 44.3122 37.7435 43.4167C37.9896 42.5211 38.3451 41.6872 38.81 40.9147C39.2748 40.1422 39.8217 39.4347 40.4506 38.7921C41.0795 38.1496 41.787 37.5993 42.5731 37.1413C43.3593 36.6833 44.1967 36.3312 45.0853 36.0851C45.974 35.839 46.9037 35.7126 47.8744 35.7057ZM54.0575 42.7296L52.663 41.3351L45.9057 48.0924L43.0858 45.2726L41.6913 46.6671L45.9057 50.8815L54.0575 42.7296Z" fill="black"/>
</g>
<defs>
<clipPath id="clip0_90_12167">
<rect width="21" height="21" fill="white" transform="translate(37.3744 35.7057)"/>
</clipPath>
</defs>
</svg>
